<?xml version="1.0" encoding="utf-8"?>
<!-- Generator: Adobe Illustrator 16.0.0, SVG Export Plug-In . SVG Version: 6.00 Build 0)  -->
<!DOCTYPE svg PUBLIC "-//W3C//DTD SVG 1.1//EN" "http://www.w3.org/Graphics/SVG/1.1/DTD/svg11.dtd">
<svg version="1.1" id="Layer_1" xmlns="http://www.w3.org/2000/svg" xmlns:xlink="http://www.w3.org/1999/xlink" x="0px" y="0px"
	 width="1000px" height="1000px" viewBox="0 0 1000 1000" enable-background="new 0 0 1000 1000" xml:space="preserve">
<g>
	<g opacity="0.3">
		
			<radialGradient id="SVGID_1_" cx="697.042" cy="819.9404" r="582.725" gradientTransform="matrix(0.6443 0 0 0.1174 30.7373 674.8619)" gradientUnits="userSpaceOnUse">
			<stop  offset="0" style="stop-color:#010101"/>
			<stop  offset="1" style="stop-color:#010101;stop-opacity:0"/>
		</radialGradient>
		<path fill="url(#SVGID_1_)" d="M811.937,771.111c0,41.378-148.679,74.931-332.093,74.931c-183.41,0-332.097-33.553-332.097-74.931
			c0-41.385,148.687-74.923,332.097-74.923C663.258,696.188,811.937,729.727,811.937,771.111z"/>
	</g>
	<g>
		<g>
			<g>
				<linearGradient id="SVGID_2_" gradientUnits="userSpaceOnUse" x1="221.4209" y1="320.1152" x2="358.5583" y2="652.8291">
					<stop  offset="0" style="stop-color:#2DAF4A"/>
					<stop  offset="0.1508" style="stop-color:#6BBA4E"/>
					<stop  offset="0.3452" style="stop-color:#98C856"/>
					<stop  offset="0.5329" style="stop-color:#B9D55E"/>
					<stop  offset="0.7091" style="stop-color:#D1DF64"/>
					<stop  offset="0.8696" style="stop-color:#DEE568"/>
					<stop  offset="1" style="stop-color:#E3E76A"/>
				</linearGradient>
				<path fill="url(#SVGID_2_)" d="M603.939,433.735v329.544H395.101V511.001c0-62.835-8.087-96.905-71.968-96.905
					c-42.504,0-68.491,22.056-68.491,96.905v252.278H45.799V433.735c0-154.125,123.206-279.07,277.334-279.07l0,0
					C477.258,154.665,603.939,279.611,603.939,433.735z"/>
			</g>
			<path opacity="0.7" fill="#53B95C" d="M257.021,458.968c0,0,24.143-127.177,144.457-130.886
				c90.587-2.793,178.02,90.196,202.462,204.561c0,0,0-80.768,0-98.907S543.824,284.85,422.565,285.906
				C301.307,286.955,259.396,330.469,257.021,458.968z"/>
			<linearGradient id="SVGID_3_" gradientUnits="userSpaceOnUse" x1="45.8027" y1="458.9722" x2="603.9395" y2="458.9722">
				<stop  offset="0" style="stop-color:#00A79D"/>
				<stop  offset="0.0932" style="stop-color:#00A39E"/>
				<stop  offset="0.2335" style="stop-color:#00999E"/>
				<stop  offset="0.4034" style="stop-color:#19889D"/>
				<stop  offset="0.5965" style="stop-color:#2A709B"/>
				<stop  offset="0.8061" style="stop-color:#365395"/>
				<stop  offset="1" style="stop-color:#3E2F90"/>
			</linearGradient>
			<path fill="url(#SVGID_3_)" d="M603.939,433.735c0-154.125-126.682-279.07-280.807-279.07
				c-154.128,0-277.33,124.946-277.33,279.07v329.544h208.839V511.001c0-4.958,0.133-9.657,0.355-14.157l-0.007-0.052
				c0-17.526-2.076-160.863,114.856-188.749c124.713-29.732,224.954,85.408,234.094,192.976V433.735z"/>
			<path opacity="0.8" fill="#9061A9" d="M603.939,437.067v-3.332c0-93.174-46.343-175.626-117.014-226.321
				c-39.143,23.194-57.4,63.101-63.681,80.007c-22.884-3.99-46.753-3.717-70.893,2.039
				C235.42,317.346,237.496,460.683,237.496,478.209l0.007,0.044c-0.225,4.507-0.351,9.199-0.351,14.157v270.869h17.489V511.001
				c0-4.958,0.133-9.657,0.355-14.157l-0.007-0.052c0-17.526-2.076-160.863,114.856-188.749
				c96.207-22.942,177.806,40.358,214.299,119.862c1.286,2.89,2.579,5.786,3.776,8.697l0,0c8.63,20.962,14.187,42.833,16.019,64.416
				v-18.591c-1.285-15.147-4.795-30.435-10.107-45.463C597.201,437.127,600.57,437.201,603.939,437.067z"/>
			<path opacity="0.5" fill="#FFFFFF" d="M336.126,154.998c-4.312-0.2-8.638-0.333-12.994-0.333
				c-154.128,0-277.33,124.946-277.33,279.07v329.544h25.976V433.735C71.778,283.963,188.127,161.78,336.126,154.998z"/>
		</g>
		<g>
			<g>
				<linearGradient id="SVGID_4_" gradientUnits="userSpaceOnUse" x1="581.2354" y1="333.1191" x2="798.038" y2="890.9605">
					<stop  offset="0" style="stop-color:#2DAF4A"/>
					<stop  offset="0.1508" style="stop-color:#6BBA4E"/>
					<stop  offset="0.3452" style="stop-color:#98C856"/>
					<stop  offset="0.5329" style="stop-color:#B9D55E"/>
					<stop  offset="0.7091" style="stop-color:#D1DF64"/>
					<stop  offset="0.8696" style="stop-color:#DEE568"/>
					<stop  offset="1" style="stop-color:#E3E76A"/>
				</linearGradient>
				<path fill="url(#SVGID_4_)" d="M953.744,433.735v329.544h-208.84V511.001c0-62.835-8.083-96.905-71.967-96.905
					c-42.501,0-74.746,22.056-74.746,96.905v252.278H394.92V433.735c0-154.125,123.205-279.07,277.33-279.07l0,0
					C826.375,154.665,953.744,279.611,953.744,433.735z"/>
			</g>
			<path opacity="0.7" fill="#53B95C" d="M606.821,458.968c0,0,24.147-127.177,144.46-130.886
				c90.588-2.793,178.02,90.196,202.463,204.561c0,0,0-80.768,0-98.907S893.628,284.85,772.369,285.906
				C651.11,286.955,609.201,330.469,606.821,458.968z"/>
			<linearGradient id="SVGID_5_" gradientUnits="userSpaceOnUse" x1="394.9199" y1="458.9722" x2="953.7441" y2="458.9722">
				<stop  offset="0" style="stop-color:#00A79D"/>
				<stop  offset="0.0932" style="stop-color:#00A39E"/>
				<stop  offset="0.2335" style="stop-color:#00999E"/>
				<stop  offset="0.4034" style="stop-color:#19889D"/>
				<stop  offset="0.5965" style="stop-color:#2A709B"/>
				<stop  offset="0.8061" style="stop-color:#365395"/>
				<stop  offset="1" style="stop-color:#3E2F90"/>
			</linearGradient>
			<path fill="url(#SVGID_5_)" d="M953.744,433.735c0-154.125-127.369-279.07-281.494-279.07s-277.33,124.946-277.33,279.07v329.544
				h209.522V511.001c0-4.958,0.133-9.657,0.354-14.157l-0.008-0.052c0-17.526-2.076-160.863,114.86-188.749
				c124.71-29.732,224.954,85.408,234.095,192.976V433.735z"/>
			<path opacity="0.5" fill="#FFFFFF" d="M685.247,154.998c-4.315-0.2-8.646-0.333-12.997-0.333
				c-154.125,0-277.33,124.946-277.33,279.07v329.544h25.979V433.735C420.899,283.963,537.248,161.78,685.247,154.998z"/>
			<path opacity="0.8" fill="#9061A9" d="M702.152,289.46C585.224,317.346,587.3,460.683,587.3,478.209l0.008,0.044
				c-0.229,4.507-0.354,9.199-0.354,14.157v270.869h17.489V511.001c0-4.958,0.133-9.657,0.354-14.157l-0.008-0.052
				c0-17.526-2.076-160.863,114.86-188.749c124.71-29.732,224.954,85.408,234.095,192.976v-18.591
				C944.604,374.861,826.869,259.72,702.152,289.46z"/>
		</g>
	</g>
</g>
</svg>
